<?xml version="1.0" standalone="no"?>
<!DOCTYPE svg PUBLIC "-//W3C//DTD SVG 20010904//EN"
 "http://www.w3.org/TR/2001/REC-SVG-20010904/DTD/svg10.dtd">
<svg version="1.0" xmlns="http://www.w3.org/2000/svg"
 width="1024.000000pt" height="1024.000000pt" viewBox="0 0 1024.000000 1024.000000"
 preserveAspectRatio="xMidYMid meet">
<metadata>
Created by potrace 1.14, written by Peter Selinger 2001-2017
</metadata>
<g transform="translate(0.000000,1024.000000) scale(0.100000,-0.100000)"
fill="#000000" stroke="none">
<path d="M2593 7415 c-17 -7 -36 -22 -42 -34 -6 -11 -11 -77 -11 -155 0 -128
1 -136 24 -163 l24 -28 904 0 c837 0 905 -1 935 -17 17 -10 160 -159 317 -331
157 -173 297 -319 311 -325 35 -16 100 -15 134 2 26 14 144 136 464 483 151
163 161 172 208 182 33 7 342 11 915 11 574 0 872 3 885 10 38 21 49 62 49
192 0 135 -7 156 -57 177 -21 8 -282 11 -1003 9 l-975 -3 -36 -22 c-19 -12
-93 -89 -165 -170 -209 -238 -335 -373 -348 -373 -7 0 -82 78 -166 173 -283
316 -330 365 -371 381 -35 14 -152 16 -1002 16 -795 -1 -968 -3 -994 -15z"/>
<path d="M2603 6559 c-51 -15 -63 -43 -64 -150 -1 -194 -3 -187 34 -209 31
-19 52 -20 745 -20 633 0 718 -2 748 -16 35 -17 77 -59 250 -249 60 -66 168
-183 239 -260 72 -77 191 -207 265 -289 264 -292 283 -308 342 -279 23 11 199
196 458 483 317 351 526 573 553 588 29 16 94 17 759 22 l726 5 26 24 c25 24
26 28 26 156 0 151 -10 176 -78 195 -24 6 -307 10 -798 10 -639 0 -768 -2
-810 -15 -53 -15 -87 -47 -239 -220 -71 -81 -362 -403 -375 -415 -3 -3 -65
-71 -139 -152 -73 -82 -136 -148 -141 -148 -4 0 -43 39 -86 87 -44 49 -140
153 -214 233 -130 139 -433 475 -493 547 -16 18 -48 44 -70 56 l-42 22 -795 2
c-478 1 -808 -2 -827 -8z"/>
<path d="M6455 5721 c-49 -3 -97 -10 -107 -16 -9 -5 -44 -44 -79 -85 -62 -74
-281 -321 -474 -535 -55 -60 -138 -153 -185 -205 -287 -321 -474 -521 -485
-518 -12 3 -179 184 -390 423 -49 56 -128 144 -175 196 -47 52 -188 209 -313
349 -126 140 -256 285 -290 323 l-62 67 -133 0 c-184 0 -177 9 -186 -220 -3
-96 -6 -799 -6 -1562 1 -1337 2 -1388 20 -1410 17 -22 26 -23 158 -26 158 -4
192 5 210 57 7 20 11 231 12 603 0 314 2 573 3 574 2 2 193 -206 255 -278 l42
-50 0 -222 c0 -187 2 -225 16 -244 16 -23 19 -23 174 -20 139 3 161 5 179 22
20 19 21 27 21 335 l0 316 -282 310 c-154 171 -310 341 -345 379 l-63 68 0
341 0 341 83 -90 c71 -76 362 -400 611 -679 64 -73 131 -146 224 -246 l34 -36
2 -717 2 -716 22 -23 c21 -20 34 -22 156 -25 159 -4 189 5 205 66 7 24 11 278
11 721 l0 683 73 81 c342 381 777 855 846 922 l41 39 0 -333 0 -333 -109 -116
c-298 -321 -568 -621 -584 -647 -10 -19 -22 -541 -13 -588 13 -71 27 -77 190
-77 206 0 192 -18 198 259 l6 220 110 123 c61 68 131 143 157 168 l47 45 -2
-585 c-1 -322 -2 -593 -1 -602 2 -36 52 -48 195 -48 130 0 135 1 165 26 l31
26 0 1551 c0 1530 0 1552 -20 1585 -13 21 -28 32 -42 32 -13 0 -32 2 -43 4
-11 1 -60 0 -110 -3z"/>
<path d="M2796 5697 c-23 -23 -24 -30 -30 -268 -4 -134 -6 -840 -4 -1567 l3
-1324 24 -19 c20 -17 40 -19 168 -19 l145 0 29 29 29 30 -2 1561 -3 1562 -24
19 c-20 17 -40 19 -168 19 -138 0 -145 -1 -167 -23z"/>
<path d="M7115 5695 l-25 -24 0 -278 c0 -153 -1 -857 -2 -1565 -3 -1224 -2
-1288 15 -1305 15 -15 40 -18 167 -21 l150 -3 30 30 30 29 0 1557 0 1556 -25
24 c-23 24 -28 25 -170 25 -142 0 -147 -1 -170 -25z"/>
</g>
</svg>
